<svg xmlns="http://www.w3.org/2000/svg" xmlns:xlink="http://www.w3.org/1999/xlink" viewBox="0 0 240 35" enable-background="new 0 0 240 35"><defs><path id="a" d="M-.844.333H240V35H-.844z"/></defs><clipPath id="b"><use xlink:href="#a" overflow="visible"/></clipPath><path clip-path="url(#b)" fill="#fff" d="M47.472 21.662c.684 1.688.856 2.397 1.223 2.397.27 0 .44-.13.61-.62l2.74-6.8c.074-.17.172-.17.22-.17.075 0 .123.1.172.22l2.69 6.43c.343.78.44.93.66.93.368 0 .564-.467.71-.81l6.286-14.82c.808-1.933 1.42-1.27 1.42-1.81 0-.27-.123-.27-.294-.27-.57 0-1.3.1-2.04.1-.59 0-1.15-.1-1.71-.1-.17 0-.27.172-.27.37 0 .49 1.59.316 1.59 1.37 0 .292-.05.536-.17.806l-4.45 10.96c-.22.536-.37.903-.54.903-.15 0-.297-.195-.54-.757l-2.05-5.064c-.147-.367-.317-.93-.317-1.174 0-.22.024-.44.22-.93l1.736-4.01c1.1-2.57 1.69-1.64 1.69-2.324 0-.073-.1-.147-.17-.147-.413 0-.71.1-1.78.1-.54 0-1.054-.1-1.59-.1-.15 0-.49 0-.49.22 0 .54 1.442.39 1.417 1.443 0 .24-.12.63-.22.88l-1.196 2.86c-.146.34-.27.61-.34.61-.05 0-.12-.17-.318-.64L51.09 8.5c-.12-.29-.17-.44-.17-.732 0-.808 1.003-.735 1.003-1.126 0-.147-.05-.294-.147-.294-.538 0-1.198.1-2.372.1-.342 0-1.64-.1-2.47-.1-.22 0-.368.025-.368.27 0 .83 1.713-.05 2.373 1.565l2.44 5.894c.12.318.24.61.24.758 0 .147-.1.513-.296 1.002l-1.81 4.306c-.097.27-.22.44-.34.44-.148 0-.32-.367-.417-.636L44.12 8.454c-.097-.22-.146-.464-.146-.612 0-.83 1.052-.83 1.052-1.198 0-.17-.05-.294-.196-.294-.587 0-1.174.1-1.76.1-.71 0-1.444-.1-2.154-.1-.244 0-.562.1-.562.392 0 .49 1.174.17 1.76 1.614l5.358 13.306z"/><path clip-path="url(#b)" fill-rule="evenodd" clip-rule="evenodd" fill="#fff" d="M68.4 17.38c.56 0 .83.026.83-.414 0-.978-1.32-3.89-4.33-3.89-3.057 0-4.793 2.618-4.793 5.75 0 1.613 1.27 5.013 4.94 5.013 2.202 0 4.33-1.77 4.33-2.33 0-.08 0-.17-.098-.17-.54 0-1.35 1.27-3.45 1.27-1.5 0-3.94-1.2-3.94-5.24h6.51zm-6.508-.66c0-1.344 1.076-3.08 2.593-3.08 1.345 0 2.715 1.223 2.715 2.592 0 .367-.147.49-.49.49h-4.818z"/><path clip-path="url(#b)" fill="#fff" d="M73.362 19.045c.98.465 2.226.856 2.226 2.152 0 1.272-.978 2.006-2.177 2.006-2.64 0-2.37-3.228-2.91-3.228-.36 0-.29.782-.29 1.198 0 1.933 0 1.957.54 1.957.59 0 1.03.71 2.74.71 1.81 0 3.3-1.518 3.3-3.352 0-1.566-.63-2.323-2.03-2.91-2.57-1.028-3.2-1.54-3.2-2.35 0-1.002.76-1.564 1.71-1.564 2.23 0 2.45 2.128 2.69 2.128.37 0 .27-.294.27-.954 0-.17.027-1.003-.12-1.2-.293-.365-1.98-.56-2.396-.56-1.786 0-3.303.977-3.303 2.934 0 1.737 1.64 2.373 2.96 3.033"/><path clip-path="url(#b)" fill-rule="evenodd" clip-rule="evenodd" fill="#fff" d="M78.444 21.002c0 2.52 1.615 2.837 2.74 2.837 1.712 0 3.033-.84 3.033-1.2 0-.2-.098-.22-.196-.22-.41 0-.78.56-2.07.56-.98 0-1.66-.47-1.71-1.47v-7.12h3.18l.335-.898c.073-.123-.21-.11-.822-.11h-2.69c0-1.76.025-2.274-.317-2.274-.198 0-.4-.14-.495.62-.203 1.624-1.526 2.26-1.54 2.45.13-.13-.45.26.567.207V21z"/><path clip-path="url(#b)" fill="#fff" d="M90.672 22.518c.22.514.514 1.54.905 1.54.367 0 .537-.806.807-1.417l6.09-14.4c.685-1.64 1.37-1.03 1.37-1.56 0-.22-.147-.32-.416-.32-.342 0-.71.1-1.884.1-.537 0-1.075-.1-1.613-.1-.24 0-.36.075-.36.32 0 .56 1.57.097 1.57 1.22.098.516-.196 1.298-.342 1.666l-4.26 10.49c-.12.293-.194.684-.44.684-.27 0-.44-.563-.977-1.86L86.838 8.8c-.1-.22-.22-.61-.22-.953 0-.88 1.026-.906 1-1.248 0-.15-.195-.25-.342-.25-.343 0-1.272.1-1.932.1-.733 0-1.492-.1-2.25-.1-.22 0-.342.125-.342.346 0 .536 1.27.07 1.886 1.54L90.68 22.52zM118.75 9.53c-.292 0-1.026 1.026-1.026 1.295 0 .27.734 1.273 1.027 1.273.32 0 1.03-.98 1.03-1.273 0-.293-.71-1.296-1.02-1.296m16.748-.14c-.293 0-1.027 1.03-1.027 1.294s.736 1.27 1.03 1.27c.317 0 1.027-.977 1.027-1.27 0-.294-.71-1.297-1.03-1.297"/><path clip-path="url(#b)" fill-rule="evenodd" clip-rule="evenodd" fill="#fff" d="M144.497 21.148c0 1.297-1.664 1.982-2.544 1.982-1.297 0-2.005-.538-2.005-1.933 0-2.152 2.984-2.543 4.55-2.886v2.84zm0-3.424c-5.724.953-6.14 2.495-6.14 3.792 0 1.736 1.05 2.323 2.642 2.323 1.37 0 2.71-.54 3.74-1.42.31.8.95 1.24 1.9 1.24.34 0 1.42-.1 1.42-.61 0-.17-.2-.17-.32-.17-.1 0-.32.05-.417.05-1.27 0-1.05-1.448-1.05-2.28v-5.06c0-2.08-2.35-2.52-3.866-2.52-2.714-.073-4.084 1.64-4.11 2.764 0 .44.735.808 1.15.808.466 0 .54-.195.54-.465s-.147-.637-.147-1.004c0-1.345.954-1.467 2.128-1.467 1.52 0 2.52.857 2.52 2.13v1.882zm-42.95 5.382c-.206.022-1.81-.01-1.81-1.053v-8.78c0-.245-.146-.392-.293-.392-.562 0-1.052.79-2.616 1.23-.123.03-.22.128-.22.27 0 .518 1.345-.12 1.345 1.35v5.77c0 2.226-1.076 1.296-1.076 1.91.024.242.17.267.366.267.27 0 .905-.097 1.688-.097 1.01 0 1.77.097 2.28.097.11 0 .2-.003.28 0 .08-.003.08 0 .165 0 .17 0 .61-.097 2.25-.097 1.37 0 1.956.097 2.298.097.27 0 .393-.05.393-.27 0-.78-2.18.393-2.18-1.88l.01-5.45c0-.32 1.947-3.746 4.928-3.615.88.04.738.08 1.317-.83.25-.393-.89-.39-1.403-.35-3.288.262-4.02 2.503-4.84 3.686v-.05l-.01-1.636c0-.246-.146-.393-.292-.393-.562 0-1.05.78-2.934 1.22-.123.024-.32.123-.32.27 0 .513 1.76-.12 1.76 1.344v6.31c0 .767-.812 1.12-1.072 1.08"/><path clip-path="url(#b)" fill="#fff" d="M133.545 23.08c-.24-.002-1.832.096-1.832-1.394V17.65c0-1.858-.71-4.573-3.988-4.573-2.372 0-3.595 2.103-3.546 1.81v-1.615c0-.244-.15-.39-.3-.39-.56 0-1.05.782-3.08 1.222-.13.024-.22.123-.22.27 0 .513 1.81-.123 1.81 1.344v6.066c0 1.13-.83 1.28-1.2 1.27-.17-.034-1.66-.038-1.66-1V13.27c0-.244-.15-.39-.29-.39-.57 0-1.05.782-2.62 1.222-.12.024-.43.848-.28.832.8-.09 1.4-.685 1.4.782v5.773c0 2.22-1.076 1.29-1.076 1.91.024.24.17.26.367.26.27 0 .903-.1 1.686-.1 1.002 0 1.76.096 2.273.096.065 0 .176.006.226 0 .04.003.115 0 .163 0 .295 0 .784-.098 2.08-.098 1.42 0 1.91.096 2.324.096.367 0 .54-.05.54-.34 0-.66-2.15.05-2.15-1.64v-5.62c-.027-.39.83-1.91 2.883-1.91 1.983 0 2.863 1.836 2.863 3.058v4.57c0 1.59-1.05 1.103-1.05 1.59 0 .246.12.295.44.295.317 0 .83-.1 1.76-.1 1.2 0 1.81.098 2.13.098.117 0 .194 0 .295-.003.08.003.163.002.265.002.27 0 .902-.1 1.685-.1 1.005 0 1.76.098 2.276.098.32 0 .468-.072.468-.27 0-.635-1.93-.096-1.93-1.344v-8.78c0-.245-.146-.392-.294-.392-.56 0-1.05.79-2.614 1.23-.12.024-.22.123-.22.27 0 .513 1.345-.123 1.345 1.344v5.772c0 1.656-.618 1.554-.93 1.59m-15.87-8.973c-.11-.175-.357-.176-.44-.176l-.055.01c-.755.27-1.408.407-1.94.407-.304 0-.566-.05-.73-.137-.208-.103-.375-.208-.536-.31-.56-.35-1.044-.654-2.65-.654-2.34 0-4.104 1.72-4.104 4.002 0 1.245.56 2.386 1.468 3.032-.365.34-1.175 1.154-1.175 2.002 0 1.07.375 1.83 1.014 2.08.55.3 1.613.473 3.255.532 2.647.077 3.214.17 3.214.984 0 .376-.186 2.255-3.893 2.255-.934 0-3.11-.178-3.11-1.824 0-.563.04-.615.333-.985.09-.116.108-.262.045-.39-.07-.15-.23-.24-.41-.24-.032 0-.07.003-.13.016-.463.16-1.17.4-1.17 1.56 0 2.182 2.81 2.76 4.3 2.76 4.096 0 5.55-2.014 5.55-3.737 0-2.35-2.54-2.35-3.906-2.35-.19 0-.375 0-.56.003l-.52.003c-1.69 0-2.332-.297-2.57-.547-.16-.168-.154-.328-.148-.46 0-.49.52-1.18 1.006-1.18.088 0 .158.016.265.043.23.06.576.15 1.427.15 2.447 0 4.224-1.647 4.224-3.91 0-.396-.053-.83-.18-1.366-.044-.1-.09-.188-.126-.266-.03-.06-.064-.13-.09-.188.833-.083 2.266-.42 2.314-.7.047-.09.136-.27.04-.43m-6.134 5.92c-1.72 0-2.33-1.69-2.33-3.134 0-1.297.39-2.843 2.232-2.843 1.72 0 2.33 1.745 2.33 3.237 0 .825-.218 2.745-2.232 2.745"/><path clip-path="url(#b)" fill-rule="evenodd" clip-rule="evenodd" fill="#fff" d="M201.357 23.106c-.15.037-.298.375.025.537.094.046-.05-.004.025 0 .08-.004.078 0 .164 0 .18 0 .62-.1 2.25-.1 1.37 0 1.96.1 2.3.1.27 0 .4-.05.4-.27 0-.783-2.174.39-2.174-1.883l.008-5.45c0-.317 1.948-3.744 4.93-3.613.882.04.737.08 1.317-.832.25-.392-.892-.39-1.405-.35-3.286.263-4.02 2.504-4.84 3.687v-.05l-.007-1.634c0-.245-.145-.393-.292-.393-.56 0-1.05.784-2.932 1.224-.12.02-.316.12-.316.26 0 .51 1.76-.126 1.76 1.342V22c0 .767-.926 1-1.192 1.104m31.95-8.11c.49-1.468 1.32-.857 1.32-1.42 0-.195-.17-.292-.465-.292-.244 0-.685.097-1.247.097-.685 0-1.076-.1-1.37-.1-.44 0-.734.02-.734.27 0 .53 1.564.17 1.564 1.49 0 .17 0 .39-.293 1.27-1.652 5.28-1.88 5.53-1.88 5.53l-2.617-6.66.05-.05c.047.22-.174-.145-.174-.536 0-.98 1.395-.49 1.395-1.003 0-.27-.144-.317-.51-.317-.393 0-.955.095-1.81.095-.66 0-1.2-.054-1.716-.054-.347 0-.378.033-.49.25-.643 1.244.91.4 1.15.905l3.204 7.9c.22.516.49 1.054.49 1.64 0 1.91-2.305 6.12-6.024 5.617-.13-.02-.42-.1-.537.05.106.03-.334-.115.428 1.014.276.216.79.33 1.668.134 2.51-.55 4.22-3.08 4.247-3.155 1.3-1.93 4.35-12.69 4.35-12.69"/><path clip-path="url(#b)" fill="#fff" d="M151.642 8.324c0-1.76 1.64-1.077 1.64-1.76 0-.295-.662-.246-.785-.246-.758 0-1.54.098-2.324.098-.66 0-1.27-.098-1.907-.098-.122 0-.538.074-.538.245 0 .782 1.98.195 1.98 1.638v8.25c0 3.77 1.224 7.36 7.657 7.36 7.118 0 6.823-6.04 6.823-7.24V8.99c0-2.25 1.444-1.712 1.444-2.397 0-.147-.195-.27-.318-.27-.44 0-.88.1-1.345.1-.96 0-1.91-.1-2.87-.1-.077 0-.248.123-.248.246 0 .93 2.274-.1 2.274 2.395v7.93c0 2.885-1.05 5.92-5.65 5.92-3.3 0-5.845-1.787-5.845-5.7V8.33z"/><path clip-path="url(#b)" fill-rule="evenodd" clip-rule="evenodd" fill="#fff" d="M199.95 17.35c.563 0 .832.024.832-.416 0-.98-1.322-3.89-4.33-3.89-3.057 0-4.793 2.618-4.793 5.75 0 1.612 1.27 5.013 4.94 5.013 2.2 0 4.32-1.76 4.32-2.324 0-.073 0-.172-.1-.172-.54 0-1.347 1.28-3.45 1.28-1.49 0-3.94-1.2-3.94-5.23h6.507zm-6.507-.66c0-1.347 1.077-3.083 2.593-3.083 1.345 0 2.715 1.223 2.715 2.593 0 .366-.14.49-.48.49h-4.82z"/><path clip-path="url(#b)" fill="#fff" d="M210.77 19.013c.978.465 2.226.856 2.226 2.152 0 1.272-.978 2.006-2.177 2.006-2.65 0-2.38-3.22-2.92-3.22-.37 0-.296.786-.296 1.2 0 1.935 0 1.96.54 1.96.586 0 1.026.71 2.74.71 1.81 0 3.3-1.517 3.3-3.35 0-1.567-.636-2.325-2.03-2.91-2.568-1.03-3.204-1.54-3.204-2.35 0-1.003.758-1.565 1.71-1.565 2.228 0 2.448 2.128 2.69 2.128.37 0 .27-.292.27-.952 0-.17.026-1.002-.12-1.2-.294-.364-1.98-.56-2.398-.56-1.785 0-3.302.98-3.302 2.935 0 1.736 1.64 2.37 2.96 3.033"/><path clip-path="url(#b)" fill-rule="evenodd" clip-rule="evenodd" fill="#fff" d="M220.473 20.97c0 2.518 1.614 2.836 2.74 2.836 1.712 0 3.032-.83 3.032-1.198 0-.196-.098-.22-.195-.22-.416 0-.783.563-2.08.563-.978 0-1.663-.46-1.71-1.46v-7.12h3.178l.334-.89c.073-.12-.21-.11-.822-.11h-2.69c0-1.76.023-2.275-.32-2.275-.195 0-.397-.14-.493.62-.204 1.628-1.526 2.26-1.542 2.45.13-.13-.45.26.568.21v6.606z"/><path clip-path="url(#b)" fill="#fff" d="M185.42 15.586c-.288-.723-.41-1.11-.41-1.182 0-.724 1.375-.41 1.375-.893 0-.26-.216-.26-.554-.26-.29 0-.6.1-1.49.1-1.59 0-1.59-.093-2.05-.093-.48 0-.5.12-.5.29 0 .434.867.07 1.326 1.158l3.643 8.32c.07.17.165.58.48.58.36 0 .36-.29.82-1.277l3.69-7.818c.34-.724 1.206-.58 1.206-.89 0-.34-.41-.364-.654-.364-.41 0-.844.095-1.254.095-.53 0-.986-.096-1.493-.096-.314 0-.58.022-.58.312 0 .603 1.496-.073 1.496 1.28 0 1.084-.603 2.1-1.062 3.062l-1.614 3.473-2.365-5.79zm-7.292 8.054c.082.006.115-.004.222-.004.27 0 .906-.098 1.688-.098 1.004 0 1.762.098 2.276.098.317 0 .464-.074.464-.27 0-.635-1.933-.097-1.933-1.345v-8.78c0-.24-.146-.39-.293-.39-.562 0-1.05.79-2.616 1.23-.123.028-.22.12-.22.27 0 .516 1.344-.12 1.344 1.347v5.77c0 1.67-.632 1.576-.905 1.59-.087 0-1.858.11-1.858-1.393v-4.04c0-1.86-.71-4.575-3.987-4.575-2.372 0-3.596 2.103-3.546 1.81v-1.62c0-.245-.147-.39-.295-.39-.57 0-1.06.782-3.08 1.222-.13.025-.23.122-.23.27 0 .513 1.81-.124 1.81 1.344v6.066c0 1.59-1.447 1.1-1.447 1.59 0 .244.123.294.442.294.292 0 .78-.098 2.08-.098 1.416 0 1.905.098 2.32.098.367 0 .54-.05.54-.343 0-.66-2.153.05-2.153-1.64V16.03c-.022-.39.83-1.907 2.888-1.907 1.98 0 2.86 1.835 2.86 3.058v4.58c0 1.59-1.05 1.1-1.05 1.59 0 .25.12.3.44.3s.83-.1 1.76-.1c1.2 0 1.81.1 2.13.1l.338.003M180.1 9.575c-.294 0-1.027 1.028-1.027 1.297 0 .27.735 1.27 1.03 1.27.32 0 1.03-.98 1.03-1.27 0-.294-.71-1.297-1.03-1.297M216.06 21.37c0 2.225-1.077 1.296-1.077 1.907.02.245.17.27.364.27.27 0 .904-.1 1.687-.1 1.005 0 1.76.1 2.276.1.32 0 .465-.073.465-.27 0-.635-1.93-.097-1.93-1.344v-8.78c0-.245-.146-.392-.29-.392-.56 0-1.05.78-2.617 1.22-.12.026-.22.125-.22.27 0 .516 1.35-.12 1.35 1.347v5.773zm.974-11.793c-.293 0-1.026 1.028-1.026 1.297 0 .27.734 1.27 1.028 1.27.32 0 1.03-.98 1.03-1.27 0-.292-.71-1.295-1.03-1.295"/><path clip-path="url(#b)" fill="#fff" d="M235.18 27.248c1.708 0 3.17-1.327 3.17-3.144 0-1.8-1.462-3.128-3.17-3.128-1.728 0-3.188 1.328-3.188 3.128 0 1.817 1.46 3.144 3.187 3.144m-2.56-3.144c0-1.485 1.12-2.606 2.55-2.606 1.42 0 2.54 1.12 2.54 2.606 0 1.51-1.12 2.62-2.54 2.62-1.44 0-2.558-1.11-2.558-2.62m1.892.25h.63l.954 1.567h.613l-1.03-1.59c.536-.06.94-.35.94-.99 0-.71-.42-1.03-1.28-1.03h-1.374v3.62h.55v-1.57zm0-.466v-1.12h.746c.38 0 .788.082.788.53 0 .557-.414.59-.88.59h-.654z"/><path clip-path="url(#b)" fill="#EEB111" d="M37.55.334h-6.178l-.37.003c-1.142-.02-1.556.406-1.898.93L24.25 8.463l-4.645-7.05-.155-.23S19.323.975 19.1.97c-.225.005-.352.212-.352.212l-.155.23-4.492 7.05-5-7.194c-.34-.525-.75-.95-1.9-.93L6.83.333H.646v5.874h3.64c.764-.007 1.12.03 1.645.66l.22.32 7.34 11.502s.24.37.648.37c.438 0 .68-.38.68-.38l4.29-6.417 4.446 6.41s.25.38.63.387c.404.01.627-.38.627-.38l7.246-11.5.213-.32c.374-.59.85-.65 1.615-.642l3.64-.003.03-5.888zM28.234 16.79l-3.96 6.28-5.1-7.4-3.927 5.777 8.277 12.986c.286.488.513.56.63.566.248.01.393-.13.666-.58l6.5-11.86c.577-1.03 1.543-1.02 1.543-1.02h4.687v-5.86h-7.317c-1.333 0-2 1.11-2 1.11"/></svg>