<svg xmlns="http://www.w3.org/2000/svg" xmlns:xlink="http://www.w3.org/1999/xlink" viewBox="0 0 240 35" enable-background="new 0 0 240 35"><defs><path id="a" d="M-.844.333H240V35H-.844z"/></defs><clipPath id="b"><use xlink:href="#a" overflow="visible"/></clipPath><path clip-path="url(#b)" fill="#fff" d="M47.472 21.662c.684 1.688.856 2.397 1.223 2.397.27 0 .44-.13.61-.62l2.74-6.8c.074-.17.172-.17.22-.17.075 0 .123.1.172.22l2.69 6.43c.343.78.44.93.66.93.368 0 .564-.47.71-.81l6.286-14.82c.808-1.94 1.42-1.27 1.42-1.81 0-.27-.123-.27-.294-.27-.57 0-1.3.1-2.04.1-.59 0-1.15-.1-1.71-.1-.17 0-.27.17-.27.37 0 .49 1.59.31 1.59 1.37 0 .29-.05.53-.17.8l-4.45 10.96c-.22.53-.37.9-.54.9-.15 0-.3-.2-.54-.76l-2.05-5.068c-.15-.367-.32-.93-.32-1.174 0-.22.02-.44.22-.93l1.73-4.01c1.1-2.57 1.69-1.64 1.69-2.325 0-.075-.1-.15-.17-.15-.42 0-.71.1-1.78.1-.54 0-1.06-.1-1.59-.1-.15 0-.49 0-.49.22 0 .54 1.44.39 1.41 1.444 0 .24-.12.63-.22.88l-1.196 2.86c-.147.34-.27.61-.34.61-.05 0-.12-.17-.32-.64L51.09 8.5c-.12-.29-.17-.44-.17-.732 0-.808 1.003-.735 1.003-1.126 0-.147-.05-.294-.147-.294-.538 0-1.198.1-2.372.1-.342 0-1.64-.1-2.47-.1-.22 0-.368.025-.368.27 0 .83 1.713-.05 2.373 1.565l2.44 5.894c.12.318.24.61.24.758 0 .147-.1.513-.3 1.002l-1.81 4.306c-.1.27-.22.44-.34.44-.15 0-.32-.367-.42-.636L44.12 8.454c-.097-.22-.146-.464-.146-.612 0-.83 1.052-.83 1.052-1.198 0-.17-.05-.294-.196-.294-.587 0-1.174.1-1.76.1-.71 0-1.444-.1-2.154-.1-.244 0-.562.1-.562.392 0 .49 1.174.17 1.76 1.614l5.358 13.306z"/><path clip-path="url(#b)" fill-rule="evenodd" clip-rule="evenodd" fill="#fff" d="M68.4 17.38c.56 0 .83.026.83-.414 0-.978-1.32-3.89-4.33-3.89-3.057 0-4.793 2.618-4.793 5.75 0 1.613 1.27 5.013 4.94 5.013 2.202 0 4.33-1.77 4.33-2.33 0-.08 0-.17-.098-.17-.54 0-1.35 1.27-3.45 1.27-1.5 0-3.94-1.2-3.94-5.24h6.51zm-6.508-.66c0-1.344 1.076-3.08 2.593-3.08 1.345 0 2.715 1.223 2.715 2.592 0 .367-.147.49-.49.49h-4.818z"/><path clip-path="url(#b)" fill="#fff" d="M73.362 19.045c.98.465 2.226.856 2.226 2.152 0 1.272-.978 2.006-2.177 2.006-2.64 0-2.37-3.228-2.91-3.228-.36 0-.29.782-.29 1.198 0 1.933 0 1.957.54 1.957.59 0 1.03.71 2.74.71 1.81 0 3.3-1.518 3.3-3.352 0-1.566-.63-2.323-2.03-2.91-2.57-1.028-3.2-1.54-3.2-2.35 0-1.002.76-1.564 1.71-1.564 2.23 0 2.45 2.128 2.69 2.128.37 0 .27-.294.27-.954 0-.17.03-1.003-.12-1.2-.29-.365-1.98-.56-2.39-.56-1.78 0-3.3.977-3.3 2.934 0 1.737 1.64 2.373 2.96 3.033"/><path clip-path="url(#b)" fill-rule="evenodd" clip-rule="evenodd" fill="#fff" d="M78.444 21.002c0 2.52 1.615 2.837 2.74 2.837 1.712 0 3.033-.84 3.033-1.2 0-.2-.098-.22-.196-.22-.41 0-.78.56-2.07.56-.98 0-1.66-.47-1.71-1.47v-7.12h3.18l.34-.9c.08-.13-.21-.11-.82-.11h-2.69c0-1.76.03-2.28-.31-2.28-.2 0-.4-.14-.493.62-.203 1.62-1.526 2.26-1.54 2.45.13-.13-.45.26.567.2V21z"/><path clip-path="url(#b)" fill="#fff" d="M90.672 22.518c.22.514.514 1.54.905 1.54.367 0 .537-.806.807-1.417l6.09-14.4c.685-1.64 1.37-1.03 1.37-1.56 0-.22-.147-.32-.416-.32-.342 0-.71.1-1.884.1-.537 0-1.075-.1-1.613-.1-.24 0-.36.08-.36.32 0 .56 1.57.1 1.57 1.22.1.52-.19 1.3-.34 1.67l-4.26 10.49c-.12.3-.19.69-.44.69-.27 0-.44-.56-.97-1.86L86.84 8.8c-.1-.22-.22-.61-.22-.953 0-.88 1.026-.906 1-1.248 0-.15-.195-.25-.34-.25-.345 0-1.274.1-1.934.1-.733 0-1.492-.1-2.25-.1-.22 0-.342.12-.342.34 0 .53 1.27.07 1.887 1.54l6.04 14.29zM118.75 9.53c-.292 0-1.026 1.026-1.026 1.295 0 .27.734 1.273 1.027 1.273.32 0 1.03-.98 1.03-1.273 0-.293-.71-1.296-1.02-1.296m16.75-.14c-.29 0-1.02 1.03-1.02 1.29s.74 1.27 1.03 1.27c.32 0 1.03-.98 1.03-1.27 0-.3-.71-1.3-1.03-1.3"/><path clip-path="url(#b)" fill-rule="evenodd" clip-rule="evenodd" fill="#fff" d="M144.497 21.148c0 1.297-1.664 1.982-2.544 1.982-1.297 0-2.005-.538-2.005-1.933 0-2.152 2.984-2.543 4.55-2.886v2.84zm0-3.424c-5.724.953-6.14 2.495-6.14 3.792 0 1.736 1.05 2.323 2.642 2.323 1.37 0 2.71-.54 3.74-1.42.31.8.95 1.24 1.9 1.24.34 0 1.42-.1 1.42-.61 0-.17-.2-.17-.32-.17-.1 0-.32.05-.42.05-1.27 0-1.05-1.45-1.05-2.28v-5.06c0-2.08-2.35-2.52-3.87-2.52-2.72-.08-4.09 1.64-4.11 2.76 0 .44.73.81 1.15.81.46 0 .54-.2.54-.47s-.15-.64-.15-1.01c0-1.347.95-1.47 2.12-1.47 1.52 0 2.52.858 2.52 2.13v1.883zm-42.95 5.382c-.206.022-1.81-.01-1.81-1.053v-8.78c0-.245-.146-.392-.293-.392-.562 0-1.052.79-2.616 1.23-.123.03-.22.13-.22.27 0 .52 1.345-.12 1.345 1.35v5.77c0 2.23-1.076 1.3-1.076 1.91.024.25.17.27.366.27.27 0 .905-.09 1.688-.09 1.01 0 1.77.1 2.28.1h.45c.17 0 .61-.092 2.25-.092 1.37 0 1.96.098 2.3.098.27 0 .4-.05.4-.27 0-.78-2.18.395-2.18-1.88l.01-5.45c0-.32 1.948-3.744 4.93-3.613.88.04.74.08 1.317-.83.25-.392-.89-.39-1.402-.35-3.29.263-4.02 2.504-4.84 3.687v-.05l-.01-1.638c0-.25-.144-.396-.29-.396-.562 0-1.05.78-2.934 1.22-.125.023-.32.122-.32.27 0 .512 1.76-.12 1.76 1.343v6.31c0 .765-.814 1.12-1.074 1.08"/><path clip-path="url(#b)" fill="#fff" d="M133.545 23.08c-.24-.002-1.832.096-1.832-1.394V17.65c0-1.858-.71-4.573-3.988-4.573-2.372 0-3.595 2.103-3.546 1.81v-1.615c0-.244-.15-.39-.3-.39-.56 0-1.05.782-3.08 1.222-.13.024-.22.123-.22.27 0 .513 1.81-.123 1.81 1.344v6.066c0 1.13-.83 1.28-1.2 1.27-.17-.034-1.66-.038-1.66-1V13.27c0-.244-.15-.39-.29-.39-.57 0-1.05.782-2.62 1.222-.12.024-.43.848-.28.832.8-.09 1.4-.685 1.4.782v5.773c0 2.22-1.08 1.29-1.08 1.91.02.24.17.26.36.26.27 0 .9-.1 1.68-.1 1.002 0 1.76.09 2.273.09h.387c.296 0 .785-.1 2.08-.1 1.42 0 1.91.09 2.325.09.367 0 .54-.05.54-.34 0-.66-2.15.05-2.15-1.64v-5.62c-.027-.39.83-1.91 2.883-1.91 1.984 0 2.864 1.834 2.864 3.06v4.57c0 1.59-1.05 1.1-1.05 1.59 0 .243.12.292.44.292.316 0 .83-.1 1.76-.1 1.2 0 1.81.1 2.13.1.116 0 .193 0 .294-.005.08.004.16.003.263.003.27 0 .9-.1 1.683-.1 1.004 0 1.76.097 2.275.097.32 0 .467-.07.467-.27 0-.633-1.93-.094-1.93-1.34v-8.78c0-.25-.145-.397-.293-.397-.56 0-1.05.79-2.616 1.23-.12.024-.22.123-.22.27 0 .513 1.343-.123 1.343 1.344v5.77c0 1.657-.62 1.555-.93 1.59m-15.87-8.97c-.11-.177-.36-.178-.44-.178l-.057.01c-.757.27-1.41.405-1.94.405-.306 0-.568-.05-.73-.14-.21-.1-.377-.206-.538-.31-.56-.35-1.046-.652-2.65-.652-2.34 0-4.106 1.72-4.106 4 0 1.246.56 2.387 1.467 3.03-.36.34-1.17 1.157-1.17 2.005 0 1.07.375 1.83 1.014 2.08.55.3 1.615.473 3.257.532 2.647.077 3.214.17 3.214.984 0 .377-.183 2.256-3.89 2.256-.932 0-3.11-.178-3.11-1.824 0-.56.04-.61.335-.98.09-.116.11-.262.046-.39-.07-.15-.23-.24-.41-.24-.03 0-.07.003-.13.016-.46.16-1.17.4-1.17 1.56 0 2.18 2.81 2.76 4.3 2.76 4.098 0 5.55-2.016 5.55-3.74 0-2.35-2.54-2.35-3.904-2.35-.19 0-.378 0-.56.005l-.52.003c-1.69 0-2.335-.297-2.57-.547-.16-.168-.157-.328-.15-.46 0-.49.52-1.18 1.005-1.18.09 0 .16.016.268.043.23.06.574.15 1.425.15 2.444 0 4.22-1.65 4.22-3.91 0-.4-.052-.83-.18-1.37-.043-.1-.09-.186-.125-.264-.03-.06-.067-.13-.09-.19.83-.084 2.263-.42 2.31-.7.05-.09.138-.27.04-.43m-6.11 5.93c-1.72 0-2.33-1.69-2.33-3.135 0-1.297.39-2.843 2.23-2.843 1.72 0 2.33 1.745 2.33 3.237 0 .823-.22 2.743-2.233 2.743"/><path clip-path="url(#b)" fill-rule="evenodd" clip-rule="evenodd" fill="#fff" d="M201.357 23.106c-.15.037-.298.375.025.537.094.046-.05-.004.025 0 .08-.004.078 0 .164 0 .18 0 .62-.1 2.25-.1 1.37 0 1.96.1 2.3.1.27 0 .4-.05.4-.27 0-.783-2.17.39-2.17-1.883l.01-5.45c0-.317 1.95-3.744 4.93-3.613.88.04.74.08 1.32-.832.25-.392-.89-.39-1.4-.35-3.284.263-4.02 2.504-4.84 3.687v-.05l-.005-1.634c0-.245-.144-.393-.29-.393-.56 0-1.05.784-2.933 1.224-.12.02-.32.12-.32.26 0 .51 1.76-.13 1.76 1.34V22c0 .767-.924 1-1.19 1.104m31.95-8.11c.49-1.468 1.32-.857 1.32-1.42 0-.195-.17-.292-.465-.292-.244 0-.685.097-1.247.097-.686 0-1.077-.1-1.37-.1-.44 0-.735.02-.735.27 0 .53 1.565.17 1.565 1.49 0 .17 0 .39-.293 1.27-1.65 5.28-1.88 5.53-1.88 5.53l-2.616-6.66.05-.05c.045.22-.176-.15-.176-.54 0-.98 1.395-.49 1.395-1.01 0-.27-.145-.32-.51-.32-.394 0-.956.09-1.81.09-.66 0-1.2-.053-1.717-.053-.345 0-.376.034-.49.25-.64 1.245.91.4 1.15.906l3.206 7.9c.22.514.49 1.052.49 1.64 0 1.91-2.307 6.12-6.026 5.615-.13-.02-.42-.1-.536.05.105.03-.335-.117.427 1.012.277.216.79.33 1.67.134 2.51-.55 4.22-3.08 4.246-3.155 1.3-1.93 4.35-12.69 4.35-12.69"/><path clip-path="url(#b)" fill="#fff" d="M151.642 8.324c0-1.76 1.64-1.077 1.64-1.76 0-.295-.662-.246-.785-.246-.758 0-1.54.098-2.324.098-.66 0-1.27-.098-1.907-.098-.122 0-.538.074-.538.245 0 .782 1.98.195 1.98 1.638v8.25c0 3.77 1.224 7.36 7.657 7.36 7.118 0 6.823-6.04 6.823-7.24V8.99c0-2.25 1.444-1.712 1.444-2.397 0-.147-.195-.27-.318-.27-.44 0-.88.1-1.345.1-.96 0-1.91-.1-2.87-.1-.08 0-.25.123-.25.246 0 .93 2.27-.1 2.27 2.39v7.93c0 2.88-1.05 5.92-5.65 5.92-3.3 0-5.85-1.79-5.85-5.7V8.33z"/><path clip-path="url(#b)" fill-rule="evenodd" clip-rule="evenodd" fill="#fff" d="M199.95 17.35c.563 0 .832.024.832-.416 0-.98-1.322-3.89-4.33-3.89-3.057 0-4.793 2.618-4.793 5.75 0 1.612 1.27 5.013 4.94 5.013 2.2 0 4.32-1.76 4.32-2.324 0-.073 0-.172-.1-.172-.54 0-1.35 1.28-3.45 1.28-1.49 0-3.94-1.2-3.94-5.23h6.5zm-6.507-.66c0-1.347 1.077-3.083 2.593-3.083 1.345 0 2.715 1.223 2.715 2.593 0 .366-.14.49-.48.49h-4.82z"/><path clip-path="url(#b)" fill="#fff" d="M210.77 19.013c.978.465 2.226.856 2.226 2.152 0 1.272-.978 2.006-2.177 2.006-2.65 0-2.38-3.22-2.92-3.22-.37 0-.3.79-.3 1.2 0 1.94 0 1.96.54 1.96.58 0 1.02.71 2.74.71 1.81 0 3.3-1.51 3.3-3.35 0-1.56-.64-2.32-2.03-2.91-2.57-1.03-3.21-1.54-3.21-2.35 0-1 .75-1.56 1.71-1.56 2.22 0 2.44 2.13 2.69 2.13.37 0 .27-.29.27-.95 0-.17.02-1-.12-1.2-.3-.36-1.98-.56-2.4-.56-1.79 0-3.3.98-3.3 2.94 0 1.738 1.64 2.37 2.96 3.035"/><path clip-path="url(#b)" fill-rule="evenodd" clip-rule="evenodd" fill="#fff" d="M220.473 20.97c0 2.518 1.614 2.836 2.74 2.836 1.712 0 3.032-.83 3.032-1.198 0-.196-.098-.22-.195-.22-.416 0-.783.563-2.08.563-.978 0-1.663-.46-1.71-1.46v-7.12h3.178l.334-.89c.073-.12-.21-.11-.822-.11h-2.69c0-1.76.023-2.27-.32-2.27-.195 0-.397-.14-.493.62-.204 1.63-1.526 2.26-1.542 2.45.13-.13-.45.26.568.21v6.61z"/><path clip-path="url(#b)" fill="#fff" d="M185.42 15.586c-.288-.723-.41-1.11-.41-1.182 0-.724 1.375-.41 1.375-.893 0-.26-.216-.26-.554-.26-.29 0-.6.1-1.49.1-1.59 0-1.59-.09-2.05-.09-.48 0-.5.12-.5.29 0 .44.87.07 1.33 1.16l3.65 8.32c.07.17.17.58.48.58.36 0 .36-.29.82-1.27l3.69-7.82c.34-.72 1.21-.58 1.21-.89 0-.34-.41-.36-.652-.36-.41 0-.844.098-1.254.098-.53 0-.985-.096-1.492-.096-.313 0-.58.02-.58.31 0 .603 1.497-.073 1.497 1.28 0 1.084-.605 2.1-1.06 3.06l-1.618 3.475-2.366-5.79zm-7.292 8.054c.082.006.115-.004.222-.004.27 0 .906-.098 1.688-.098 1.004 0 1.762.098 2.276.098.317 0 .464-.074.464-.27 0-.635-1.933-.097-1.933-1.345v-8.78c0-.24-.146-.39-.293-.39-.562 0-1.05.79-2.616 1.23-.123.03-.22.12-.22.27 0 .52 1.344-.12 1.344 1.35v5.77c0 1.67-.632 1.58-.905 1.59-.087 0-1.858.11-1.858-1.39v-4.04c0-1.86-.71-4.57-3.987-4.57-2.372 0-3.596 2.11-3.546 1.81v-1.62c0-.24-.147-.39-.295-.39-.57 0-1.06.788-3.08 1.228-.13.025-.23.12-.23.27 0 .513 1.81-.124 1.81 1.344v6.066c0 1.59-1.45 1.1-1.45 1.59 0 .242.12.292.44.292.29 0 .78-.1 2.08-.1 1.41 0 1.9.097 2.32.097.36 0 .54-.05.54-.345 0-.66-2.16.05-2.16-1.64v-5.63c-.02-.39.83-1.908 2.89-1.908 1.98 0 2.86 1.835 2.86 3.058v4.58c0 1.59-1.05 1.1-1.05 1.59 0 .25.12.3.44.3s.83-.1 1.76-.1c1.2 0 1.81.1 2.13.1l.332.01m1.983-14.08c-.295 0-1.028 1.03-1.028 1.3s.733 1.27 1.03 1.27c.32 0 1.03-.98 1.03-1.27 0-.29-.71-1.293-1.03-1.293m35.96 11.79c0 2.226-1.078 1.297-1.078 1.91.02.243.17.27.362.27.27 0 .903-.1 1.686-.1 1.006 0 1.76.1 2.277.1.32 0 .465-.075.465-.27 0-.637-1.93-.1-1.93-1.346v-8.78c0-.245-.147-.392-.29-.392-.56 0-1.05.78-2.618 1.22-.12.03-.22.13-.22.27 0 .52 1.35-.12 1.35 1.35v5.774zm.973-11.79c-.292 0-1.025 1.026-1.025 1.295 0 .27.736 1.27 1.03 1.27.32 0 1.03-.98 1.03-1.27 0-.292-.71-1.295-1.03-1.295"/><path clip-path="url(#b)" fill="#fff" d="M235.18 27.248c1.708 0 3.17-1.327 3.17-3.144 0-1.8-1.462-3.128-3.17-3.128-1.728 0-3.188 1.328-3.188 3.128 0 1.817 1.46 3.144 3.187 3.144m-2.56-3.144c0-1.485 1.12-2.606 2.55-2.606 1.42 0 2.54 1.12 2.54 2.606 0 1.51-1.12 2.62-2.54 2.62-1.44 0-2.56-1.11-2.56-2.62m1.89.25h.63l.95 1.567h.61l-1.03-1.59c.53-.06.94-.35.94-.99 0-.71-.42-1.03-1.28-1.03h-1.38v3.62h.55v-1.57zm0-.466v-1.12h.74c.38 0 .78.082.78.53 0 .557-.413.59-.88.59h-.653z"/><path clip-path="url(#b)" fill="#EEB111" d="M37.55.334h-6.178l-.37.003c-1.142-.02-1.556.406-1.898.93L24.25 8.463l-4.645-7.05-.155-.23S19.323.975 19.1.97c-.225.005-.352.212-.352.212l-.155.23-4.492 7.05-5-7.194c-.34-.525-.75-.95-1.9-.93L6.83.333H.646v5.874h3.64c.764-.007 1.12.03 1.645.66l.22.32 7.34 11.502s.24.37.65.37c.44 0 .68-.38.68-.38l4.29-6.42 4.45 6.41s.25.38.63.38c.41.01.63-.38.63-.38l7.25-11.5.216-.32c.375-.59.85-.65 1.616-.65l3.64-.002.03-5.888zM28.234 16.79l-3.96 6.28-5.1-7.4-3.927 5.777 8.277 12.986c.286.488.513.56.63.566.248.01.393-.13.666-.58l6.5-11.86c.577-1.03 1.543-1.02 1.543-1.02h4.687v-5.86h-7.317c-1.333 0-2 1.11-2 1.11"/></svg>