<svg xmlns="http://www.w3.org/2000/svg" xmlns:xlink="http://www.w3.org/1999/xlink" width="900" height="54" viewBox="0 0 900 54"><defs><path id="a" d="M0 0h900v54H0z"/></defs><clipPath id="b"><use xlink:href="#a" overflow="visible"/></clipPath><path clip-path="url(#b)" fill="#055EAA" d="M0 0h900v54H0z"/><linearGradient gradientUnits="userSpaceOnUse" x1="2.821" y1="26.671" x2="891.548" y2="26.671"><stop offset="0" stop-color="#055EAA" stop-opacity="0"/><stop offset=".009" stop-color="#055EAA" stop-opacity=".141"/><stop offset=".066" stop-color="#055EAA"/><stop offset=".131" stop-color="#105290"/><stop offset=".196" stop-color="#15487E"/><stop offset=".282" stop-color="#16467C"/><stop offset=".615" stop-color="#16467A"/><stop offset=".827" stop-color="#0F5394"/><stop offset="1" stop-color="#055EAA"/></linearGradient><g opacity=".3" clip-path="url(#b)"><defs><path id="c" opacity=".3" d="M-268.93-1.623H919.334v541.556H-268.93z"/></defs><clipPath id="d"><use xlink:href="#c" overflow="visible"/></clipPath><linearGradient id="e" gradientUnits="userSpaceOnUse" x1="30.989" y1="26.671" x2="891.464" y2="26.671"><stop offset="0" stop-color="#0062A9"/><stop offset=".092" stop-color="#005DA2"/><stop offset=".586" stop-color="#00447C"/></linearGradient><path clip-path="url(#d)" fill="url(#e)" d="M844.645 53.955H77.85L30.99-.612h860.474z"/><linearGradient id="f" gradientUnits="userSpaceOnUse" x1="627.138" y1="269.155" x2="1174.57" y2="269.155"><stop offset="0" stop-color="#0062A9"/><stop offset=".8" stop-color="#00447C"/></linearGradient><path clip-path="url(#d)" fill="url(#f)" d="M668.14 572.262l-41.002-17.218L1133.566-33.95l41.004 17.216z"/><linearGradient id="g" gradientUnits="userSpaceOnUse" x1="-789.841" y1="269.155" x2="-242.409" y2="269.155"><stop offset=".2" stop-color="#00447C"/><stop offset="1" stop-color="#0062A9"/></linearGradient><path clip-path="url(#d)" fill="url(#g)" d="M-283.413 572.262L-789.84-16.734l41.003-17.217 506.427 588.99z"/><linearGradient id="h" gradientUnits="userSpaceOnUse" x1="-701.279" y1="269.155" x2="-153.847" y2="269.155"><stop offset=".2" stop-color="#00447C"/><stop offset="1" stop-color="#0062A9"/></linearGradient><path clip-path="url(#d)" fill="url(#h)" d="M-194.852 572.262L-701.28-16.734l41.005-17.217 506.428 588.99z"/><linearGradient id="i" gradientUnits="userSpaceOnUse" x1="-612.719" y1="269.155" x2="-65.286" y2="269.155"><stop offset=".2" stop-color="#00447C"/><stop offset="1" stop-color="#0062A9"/></linearGradient><path clip-path="url(#d)" fill="url(#i)" d="M-106.29 572.262L-612.72-16.734l41.005-17.217 506.43 588.99z"/><linearGradient id="j" gradientUnits="userSpaceOnUse" x1="892.821" y1="269.155" x2="1440.252" y2="269.155"><stop offset="0" stop-color="#0062A9"/><stop offset=".8" stop-color="#00447C"/></linearGradient><path clip-path="url(#d)" fill="url(#j)" d="M933.825 572.262l-41.004-17.218L1399.25-33.95l41.004 17.216z"/><linearGradient id="k" gradientUnits="userSpaceOnUse" x1="804.26" y1="269.155" x2="1351.691" y2="269.155"><stop offset="0" stop-color="#0062A9"/><stop offset=".8" stop-color="#00447C"/></linearGradient><path clip-path="url(#d)" fill="url(#k)" d="M845.264 572.262l-41.004-17.218L1310.688-33.95l41.003 17.216z"/><linearGradient id="l" gradientUnits="userSpaceOnUse" x1="715.699" y1="269.155" x2="1263.131" y2="269.155"><stop offset="0" stop-color="#0062A9"/><stop offset=".8" stop-color="#00447C"/></linearGradient><path clip-path="url(#d)" fill="url(#l)" d="M756.702 572.262L715.7 555.044 1222.127-33.95l41.003 17.216z"/><linearGradient id="m" gradientUnits="userSpaceOnUse" x1="25.813" y1="188.481" x2="896.708" y2="188.481"><stop offset="0" stop-color="#00447C"/><stop offset=".119" stop-color="#004F8C"/><stop offset=".254" stop-color="#005899"/><stop offset=".398" stop-color="#005DA2"/><stop offset=".554" stop-color="#0061A7"/><stop offset=".75" stop-color="#0062A9"/></linearGradient><path clip-path="url(#d)" fill="url(#m)" d="M418.492 188.36l-26.95 31.344 155.256 180.57L896.708-6.683l-39.603-16.63-19.52 22.7L546.8 337.584 418.492 188.36zm0-136.28l128.306 149.227L725.634-6.683l-39.604-16.63-139.23 161.93L418.49-10.61 290.183 138.616l-139.23-161.93-39.603 16.63 178.834 207.99L418.49 52.082zm-128.31 248.71l77.1-89.668 35.39-41.16 15.82-18.396L546.797 300.79 811.17-6.683l-39.603-16.63-224.77 261.415L418.492 88.877 290.185 238.1 65.417-23.312 25.813-6.682l244.57 284.443 19.802 23.03z"/></g><path clip-path="url(#b)" fill="#055EAA" d="M790.5 53.955h54.23L891.716-.612H837.32z"/></svg>